PathFileType	3	(X/Y/Z)	D:\Jess\Healthy\Labelled\HA23\20251031\SRRun01.trc
DataRate	CameraRate	NumFrames	NumMarkers	Units	OrigDataRate	OrigDataStartFrame	OrigNumFrames
250.0	250.0	4	37	mm	250.0	35312	2501
Frame#	Time	C7			T10			CLAV			LSHO			RSHO			LASIS			RASIS			LPSIS			RPSIS			LILCR			RILCR			LGTR			LTHI			LLTHI			LLEP			LMEP			LPSH			LLSH			LDSH			LLMAL			LMMAL			LTOE			L5TH			LHEE			RGTR			RTHI			RLTHI			RLEP			RMEP			RPSH			RLSH			RDSH			RLMAL			RMMAL			RTOE			R5TH			RHEE			
		X1	Y1	Z1	X2	Y2	Z2	X3	Y3	Z3	X4	Y4	Z4	X5	Y5	Z5	X6	Y6	Z6	X7	Y7	Z7	X8	Y8	Z8	X9	Y9	Z9	X10	Y10	Z10	X11	Y11	Z11	X12	Y12	Z12	X13	Y13	Z13	X14	Y14	Z14	X15	Y15	Z15	X16	Y16	Z16	X17	Y17	Z17	X18	Y18	Z18	X19	Y19	Z19	X20	Y20	Z20	X21	Y21	Z21	X22	Y22	Z22	X23	Y23	Z23	X24	Y24	Z24	X25	Y25	Z25	X26	Y26	Z26	X27	Y27	Z27	X28	Y28	Z28	X29	Y29	Z29	X30	Y30	Z30	X31	Y31	Z31	X32	Y32	Z32	X33	Y33	Z33	X34	Y34	Z34	X35	Y35	Z35	X36	Y36	Z36	X37	Y37	Z37	

313	141.244	887.9004311552635	1397.465846661693	-1203.985509826107	856.1587102745209	1163.780882163218	-1138.131345785642	891.2623751524868	1283.472655840275	-1330.710835469235	737.0248215569651	1390.158989737118	-1247.578914733107	1040.30999447639	1351.065393472456	-1234.735057861034	732.958405222548	896.7060542403214	-1299.623483868744	1002.45569919824	927.0664364615869	-1266.55857943762	826.50363617184	952.6536815732056	-1096.684978542158	858.3121297576702	954.8146281051294	-1092.697639213716	689.3807647416462	968.7871366709048	-1248.828961476445	1030.755968928581	991.330382060196	-1187.765782263147	665.359249503087	816.806671139429	-1227.191197973209	769.0746626599021	660.5729698246952	-1364.884414744658	684.6218838775499	570.837477430033	-1283.113585961462	699.7456000162815	444.4113568315653	-1277.830408072821	nan	nan	nan	751.2384670284475	361.7011888256012	-1259.044413523944	700.0570205433295	396.709989239029	-1114.877930666045	747.9419543942792	313.1756678248418	-1073.273824181731	726.6092220500142	317.6023747638446	-927.1813968706888	nan	nan	nan	743.0501410187314	168.4071755671224	-926.2085549706119	702.5967301343001	186.7999154279002	-887.6919543879095	769.6273306078455	368.2666135018009	-870.5978808689886	1058.775716025855	849.4960135702561	-1229.491649134815	964.1266281765789	700.4047748951264	-1357.690258224076	1010.529658527556	592.6046334759976	-1270.538255965041	970.3040342813646	445.276427448255	-1291.854576191138	nan	nan	nan	914.4971516203988	381.3114996011095	-1318.216384596599	965.1463243430729	288.9424575899026	-1221.765473182592	889.4412096050024	209.5248260723766	-1227.086870510059	922.5733540280652	101.1713842375754	-1129.517504743073	nan	nan	nan	899.2131197861735	58.12560614575388	-1259.482366077685	946.82973799877	36.67927141993916	-1227.747123826859	884.1037375756774	73.79452944797681	-1047.102289108369	
314	141.248	888.8293522084444	1398.090660225717	-1203.798319980482	857.3757886652816	1164.67309393806	-1137.598006897873	890.2620984256879	1284.158567801741	-1330.701737744494	737.4356379347399	1391.320979355809	-1245.67719134646	1040.672679200639	1351.608114901926	-1237.12657321589	732.4310302566628	898.0890234273262	-1298.255859550186	1002.011680850945	927.1477773161321	-1266.612189594193	827.4779220104074	953.6866745742225	-1095.886314255214	859.2956068323914	955.7908461819903	-1092.11330264703	689.2214588680475	970.3894522472085	-1247.251793454421	1031.103402971226	991.5725062582439	-1188.011892287202	665.2325757686389	817.8856156692674	-1225.526273107891	768.7163641250939	663.1550764474921	-1366.785469921471	683.8341977379254	572.6522604518399	-1287.070717833186	699.4386983217167	445.8473944837262	-1284.819002322832	nan	nan	nan	751.1395336627272	363.4016260470489	-1266.813685524416	700.248992915963	397.1815036636239	-1122.411839184593	747.8596973549623	312.6425042852719	-1081.715883087172	726.7123309090889	314.9627433150023	-935.4798149109427	nan	nan	nan	743.078544895105	165.8522674130332	-938.1435970335223	702.454110641741	183.2893202851979	-899.3530917431103	769.5155263534556	364.2241326109756	-877.3412495522359	1058.469817283872	849.4530472577509	-1229.360015477473	963.9063161380514	697.8988988389289	-1354.633009679771	1010.482324563069	591.9472843622391	-1265.581658162301	970.5551243953443	443.9319650431406	-1284.101545256233	nan	nan	nan	915.1184049912645	379.4928284310276	-1310.277020402529	965.0925390028143	287.9704253602397	-1213.024712481703	889.5835938185475	208.7755081025213	-1218.047003667842	922.6061238317649	101.4029420424127	-1119.614997052382	nan	nan	nan	899.1594837994036	57.80014007011649	-1249.426806571776	946.763621659937	36.53961148822014	-1217.570299858473	884.0330579679095	74.33987657865872	-1037.071056959714	
315	141.252	889.7479595331886	1398.874152402769	-1203.568811404411	858.6322546870249	1165.717660534538	-1137.151947579197	889.2385476008561	1285.194064293201	-1330.67735424114	737.8385817652553	1392.736915125215	-1243.717562325986	1040.980122370163	1352.387648344165	-1239.495545959253	731.8218207844277	899.7712834764641	-1296.885267029853	1001.507111999775	927.3446282587812	-1266.779358626967	828.5542121399066	954.8921324593812	-1095.112556394727	860.3763858577139	956.9437835065355	-1091.581946366091	689.0637886178941	972.1632721929719	-1245.589316302561	1031.444961653175	991.9486395425	-1188.515264862734	665.1109495631181	819.1758590773426	-1223.750962709649	768.2855093607002	665.9947959200539	-1368.606757195273	683.1070489136449	574.7862934210868	-1290.912126179363	699.2380086166575	447.6188448294359	-1291.691640662646	nan	nan	nan	751.1287095264976	365.3855339304474	-1274.5451950602	700.5342686506413	397.6998473371223	-1129.870304137625	747.8559386054716	312.0733796627552	-1090.209172579171	726.8900304914049	312.0067404316829	-943.846575901767	nan	nan	nan	743.1975687556339	163.0868477109733	-950.380406851324	702.428324346759	179.4950253142817	-911.2812522670184	769.4873256385878	359.7476237604196	-884.1395447960274	1058.123914547706	849.5564779778246	-1229.342842737678	963.5611858339664	695.5093781219907	-1351.477551160031	1010.416278874432	591.5240603170802	-1260.533795554956	970.7574430315904	442.8378428881853	-1276.185521709909	nan	nan	nan	915.6136927898752	377.9296337084517	-1302.126832524475	965.015776424417	287.1952407826469	-1204.19086691816	889.6958881076666	208.2131851531954	-1208.904577057691	922.6431216135007	101.7231657183975	-1109.694424900226	nan	nan	nan	899.1009165477244	57.48291729793446	-1239.354316637123	946.6933914103935	36.42005780435516	-1207.371547323088	883.9843093086554	75.00546333920653	-1027.034258029704	
316	141.256	890.6505277838374	1399.817919741867	-1203.3038797094	859.9263020454048	1166.90830439698	-1136.794958286639	888.1919542683444	1286.564621948465	-1330.641754445095	738.23227144062	1394.395241014724	-1241.707580918997	1041.231822918496	1353.404181588008	-1241.827889788365	731.1388491619348	901.7187333788962	-1295.52055004441	1000.958031337336	927.6669740699067	-1267.056647597532	829.7047589074286	956.2665650673049	-1094.373967344033	861.5273373029984	958.2730525395714	-1091.108693140115	688.9102248683962	974.0712539932198	-1243.837375109518	1031.772185479462	992.4745782233891	-1189.266471750758	664.9956079688652	820.6640335181012	-1221.893790138279	767.7849234400327	669.0887346710698	-1370.342363211188	682.4429837325235	577.2300552570356	-1294.624951699311	699.1405893247937	449.7282367170837	-1298.419383897666	nan	nan	nan	751.2000536329718	367.6450707958671	-1282.220102007853	700.9053627860477	398.2446332052739	-1137.231400689767	747.9338900608373	311.4672083208471	-1098.73970790266	727.1496971507793	308.7434411377622	-952.2797206200854	nan	nan	nan	743.3945608021933	160.1355223883972	-962.9050884002332	702.5111334263893	175.4469510686492	-923.4661845019409	769.5605117021229	354.8404583694469	-891.0056095458043	1057.746941913632	849.8135436917252	-1229.414824233681	963.0858557775764	693.2858667485335	-1348.224690341262	1010.327956643215	591.3507973734644	-1255.426565382358	970.9045861926628	442.0225140733704	-1268.157360687609	nan	nan	nan	915.9718443372617	376.6570747725762	-1293.801774643616	964.9199705995529	286.651021283817	-1195.29835598208	889.7788492856398	207.8632742177519	-1199.681566040026	922.6891889121034	102.1516815857366	-1099.771793392111	nan	nan	nan	899.041047591193	57.18067317738453	-1229.27056203635	946.6212826287756	36.32614476788328	-1197.156284430919	883.9641901272414	75.81571079318016	-1017.006107229898	
